<svg xmlns="http://www.w3.org/2000/svg" width="275" height="45.191" viewBox="0 0 275 45.191">
  <g id="Grupo_197" data-name="Grupo 197" transform="translate(-1262.621 176.943)">
    <g id="Grupo_196" data-name="Grupo 196" transform="translate(1262.621 -176.943)">
      <g id="Grupo_190" data-name="Grupo 190" transform="translate(83.4 6.549)">
        <g id="Grupo_189" data-name="Grupo 189">
          <g id="Grupo_187" data-name="Grupo 187" transform="translate(0.79 10.712)">
            <path id="Trazado_40" data-name="Trazado 40" d="M1403.871-147.685h1.858v11.2h-1.858Z" transform="translate(-1403.871 147.863)" fill="#fff"/>
            <path id="Trazado_41" data-name="Trazado 41" d="M1427.02-147.685v11.2h-1.858c-.5-.714-1.635-2.469-2.676-4.06l-1.97-2.974-.631-1.056v8.09h-1.858v-11.2h1.858l3.79,5.77,1.468,2.394v-8.164Z" transform="translate(-1409.589 147.863)" fill="#fff"/>
            <path id="Trazado_42" data-name="Trazado 42" d="M1453.18-147.685v11.2h-1.858c-.5-.714-1.635-2.469-2.675-4.06l-1.97-2.974-.631-1.056v8.09h-1.858v-11.2h1.858l3.79,5.77,1.468,2.394v-8.164Z" transform="translate(-1420.157 147.863)" fill="#fff"/>
            <path id="Trazado_43" data-name="Trazado 43" d="M1479.667-142.185c0,5.041-2.174,5.785-4.868,5.785-2.712,0-4.886-.744-4.886-5.785s2.175-5.8,4.886-5.8C1477.493-147.984,1479.667-147.226,1479.667-142.185Zm-1.839,0c0-3.985-1.245-4.476-3.029-4.476s-3.028.491-3.028,4.476,1.245,4.476,3.028,4.476S1477.827-138.2,1477.827-142.185Z" transform="translate(-1430.549 147.984)" fill="#fff"/>
            <path id="Trazado_44" data-name="Trazado 44" d="M1506.273-147.685l-4.218,11.2h-1.746l-4.237-11.2h1.951l3.159,8.744,3.158-8.744Z" transform="translate(-1441.117 147.863)" fill="#fff"/>
            <path id="Trazado_45" data-name="Trazado 45" d="M1530.689-136.487l-1-2.781h-4.31l-1,2.781h-1.951l4.237-11.2h1.746l4.236,11.2Zm-4.905-3.941h3.493l-1.747-4.877Z" transform="translate(-1451.76 147.863)" fill="#fff"/>
            <path id="Trazado_46" data-name="Trazado 46" d="M1568.287-144.935c0-2.186,1.747-3.049,4.125-3.049a5.6,5.6,0,0,1,3.438.951l-.669.818a8.645,8.645,0,0,0-2.769-.446c-1.6,0-2.341.64-2.341,1.7,0,2.156,6.707,1.115,6.707,4.967,0,2.558-2.192,3.6-4.7,3.6a6.533,6.533,0,0,1-3.734-.952l.688-.818a9.185,9.185,0,0,0,2.843.446c1.9,0,3.122-.7,3.122-2.245C1574.995-142.527,1568.287-141.292,1568.287-144.935Z" transform="translate(-1470.288 147.984)" fill="#fff"/>
            <path id="Trazado_47" data-name="Trazado 47" d="M1597.122-147.685c2.174,0,4.626.58,4.626,3.644,0,2.855-2.341,3.509-4.533,3.509h-2.156v4.045H1593.2v-11.2Zm-.241,5.993c1.653,0,3.029-.551,3.029-2.35,0-2.007-1.468-2.469-3.122-2.469h-1.729v4.818Z" transform="translate(-1480.353 147.863)" fill="#fff"/>
            <path id="Trazado_48" data-name="Trazado 48" d="M1627.526-142.185c0,5.041-2.174,5.785-4.868,5.785-2.713,0-4.887-.744-4.887-5.785s2.174-5.8,4.887-5.8C1625.352-147.984,1627.526-147.226,1627.526-142.185Zm-1.839,0c0-3.985-1.245-4.476-3.029-4.476s-3.028.491-3.028,4.476,1.245,4.476,3.028,4.476S1625.687-138.2,1625.687-142.185Z" transform="translate(-1490.278 147.984)" fill="#fff"/>
            <path id="Trazado_49" data-name="Trazado 49" d="M1653.366-136.487h-2.211l-3.437-4.327h-1.022v4.327h-1.858v-11.2h3.92c2.193,0,4.627.432,4.627,3.495,0,2.439-1.709,3.167-3.586,3.331Zm-6.671-5.5h1.821c1.653,0,3.029-.4,3.029-2.2,0-2.007-1.468-2.32-3.121-2.32h-1.728Z" transform="translate(-1501.212 147.863)" fill="#fff"/>
            <path id="Trazado_50" data-name="Trazado 50" d="M1677.232-146.525H1674v10.037h-1.858v-10.037h-3.233v-1.16h8.324Z" transform="translate(-1510.935 147.863)" fill="#fff"/>
            <path id="Trazado_51" data-name="Trazado 51" d="M1692.575-144.935c0-2.186,1.747-3.049,4.125-3.049a5.6,5.6,0,0,1,3.437.951l-.669.818a8.648,8.648,0,0,0-2.769-.446c-1.6,0-2.341.64-2.341,1.7,0,2.156,6.707,1.115,6.707,4.967,0,2.558-2.192,3.6-4.7,3.6a6.534,6.534,0,0,1-3.735-.952l.687-.818a9.188,9.188,0,0,0,2.843.446c1.895,0,3.122-.7,3.122-2.245C1699.283-142.527,1692.575-141.292,1692.575-144.935Z" transform="translate(-1520.496 147.984)" fill="#fff"/>
          </g>
          <g id="Grupo_188" data-name="Grupo 188">
            <path id="Trazado_52" data-name="Trazado 52" d="M1407.828-163.109v2.848a4.364,4.364,0,0,1-2.383.624c-1.551,0-2.9-.4-2.9-3.155s1.4-3.164,2.951-3.164a2.968,2.968,0,0,1,1.846.519l-.375.446a4.688,4.688,0,0,0-1.5-.243c-1.034,0-1.917.316-1.917,2.442s.821,2.434,1.866,2.434a4.232,4.232,0,0,0,1.39-.227v-1.891h-1.582v-.633Z" transform="translate(-1402.545 165.956)" fill="#fff"/>
            <path id="Trazado_53" data-name="Trazado 53" d="M1422.1-159.684h-1.207l-1.876-2.361h-.557v2.361h-1.015v-6.109h2.14c1.2,0,2.525.236,2.525,1.907,0,1.33-.933,1.728-1.957,1.817Zm-3.641-3h.994c.9,0,1.653-.219,1.653-1.2,0-1.1-.8-1.266-1.7-1.266h-.943Z" transform="translate(-1408.563 165.89)" fill="#fff"/>
            <path id="Trazado_54" data-name="Trazado 54" d="M1432.081-165.793v3.813c0,1.461.608,1.7,1.582,1.7s1.582-.235,1.582-1.7v-3.813h1.014v3.813c0,2.037-1.125,2.409-2.6,2.409s-2.6-.373-2.6-2.409v-3.813Z" transform="translate(-1414.067 165.89)" fill="#fff"/>
            <path id="Trazado_55" data-name="Trazado 55" d="M1447.936-165.793c1.186,0,2.525.317,2.525,1.988,0,1.557-1.278,1.914-2.474,1.914h-1.177v2.207H1445.8v-6.109Zm-.132,3.269c.9,0,1.653-.3,1.653-1.281,0-1.1-.8-1.347-1.7-1.347h-.943v2.629Z" transform="translate(-1420.017 165.89)" fill="#fff"/>
            <path id="Trazado_56" data-name="Trazado 56" d="M1464.522-162.792c0,2.75-1.186,3.155-2.657,3.155s-2.667-.4-2.667-3.155,1.186-3.164,2.667-3.164S1464.522-165.542,1464.522-162.792Zm-1,0c0-2.175-.679-2.442-1.653-2.442s-1.653.267-1.653,2.442.679,2.441,1.653,2.441S1463.518-160.618,1463.518-162.792Z" transform="translate(-1425.431 165.956)" fill="#fff"/>
          </g>
        </g>
      </g>
      <g id="Grupo_195" data-name="Grupo 195">
        <g id="Grupo_194" data-name="Grupo 194">
          <g id="Grupo_191" data-name="Grupo 191" transform="translate(4.762 6.298)">
            <path id="Trazado_57" data-name="Trazado 57" d="M1322.45-166.377h6.986v33.959h-6.986Z" transform="translate(-1291.551 166.377)" fill="#dd3e3e"/>
            <path id="Trazado_58" data-name="Trazado 58" d="M1295.885-155.122v-4.463c0-4.609-2.183-6.792-6.792-6.792H1277.4c-4.609,0-6.792,2.183-6.792,6.792v19.449l5.851,7.683c.3.022.614.036.941.036h11.692c4.609,0,6.792-2.183,6.792-6.792v-11.935H1282.5v6.113h6.4v5.24c0,.728-.243.97-.97.97h-9.363c-.728,0-.97-.242-.97-.97V-159c0-.727.243-.97.97-.97h9.363c.728,0,.97.243.97.97v3.881Z" transform="translate(-1270.61 166.377)" fill="#dd3e3e"/>
            <path id="Trazado_59" data-name="Trazado 59" d="M1360.607-151.823l-9.023-1.941c-1.262-.291-1.65-.582-1.65-1.649V-159.1c0-.728.243-.97.971-.97h8.344c.728,0,.97.243.97.97v3.4h6.792v-3.266l-5.594-7.345c-.381-.037-.776-.061-1.2-.061H1349.74c-4.609,0-6.792,2.183-6.792,6.792v5.239c0,4.367,2.717,6.065,6.985,6.986l9.024,1.941c1.261.291,1.649.582,1.649,1.649v4.076c0,.727-.242.97-.97.97h-9.023c-.728,0-.97-.243-.97-.97v-3.785h-6.792v4.269c0,4.609,2.183,6.792,6.792,6.792H1360.8c4.609,0,6.792-2.183,6.792-6.792v-5.627C1367.593-149.2,1364.876-150.9,1360.607-151.823Z" transform="translate(-1299.792 166.377)" fill="#dd3e3e"/>
          </g>
          <g id="Grupo_192" data-name="Grupo 192" transform="translate(0 31.374)">
            <path id="Trazado_60" data-name="Trazado 60" d="M1273.035-110.52l-10.413-13.785h1.694l10.438,13.817Z" transform="translate(-1262.621 124.305)" fill="#dd3e3e"/>
          </g>
          <g id="Grupo_193" data-name="Grupo 193" transform="translate(63.971)">
            <path id="Trazado_61" data-name="Trazado 61" d="M1380.362-163.158l-10.413-13.785h1.694l10.438,13.817Z" transform="translate(-1369.948 176.943)" fill="#dd3e3e"/>
          </g>
        </g>
      </g>
    </g>
    <circle id="Elipse_7" data-name="Elipse 7" cx="2.086" cy="2.086" r="2.086" transform="translate(1533.449 -152.539)" fill="#dd3e3e"/>
  </g>
</svg>
